<?xml version="1.0" encoding="UTF-8"?>
<svg id="Layer_2" data-name="Layer 2" xmlns="http://www.w3.org/2000/svg" viewBox="0 0 473.08 160.25">
  <defs>
    <style>
      .cls-1 {
        fill: #ff009b;
      }
    </style>
  </defs>
  <g id="Layer_1-2" data-name="Layer 1">
    <g>
      <path class="cls-1" d="M20.33,34.66c1.67,5.39,1.67,8.93,1.24,14.32h1.74c-.43-5.39-.37-9.05,1.24-14.32l8.06-25.36h11.59l-14.63,43.4h-14.26L.68,9.3h11.59l8.06,25.36Z"/>
      <path class="cls-1" d="M53.07,5.71c3.91,0,6.45,1.98,6.45,5.46s-2.54,5.46-6.45,5.46-6.45-1.98-6.45-5.46,2.48-5.46,6.45-5.46ZM58.53,52.7h-10.91V18.6h10.91v34.1Z"/>
      <path class="cls-1" d="M96.47,36.52h-23.37c.25,5.83,2.98,9.05,7.44,9.05s6.51-2.6,7.13-7.25l9.8,1.18c-1.36,9.24-7.01,14.13-17.23,14.13-11.16,0-17.55-6.51-17.55-17.98s6.57-17.98,17.55-17.98c11.78,0,16.55,7.56,16.24,18.85ZM86.55,30.75c-.5-3.04-2.29-5.02-6.32-5.02-3.04,0-5.27,1.74-6.32,5.02h12.65Z"/>
      <path class="cls-1" d="M117.24,9.3c.06,3.97-.74,6.2-2.48,7.94-1.36,1.24-3.16,1.98-7.13,2.97l.62,1.67c3.41-1.73,6.63-3.29,13.02-3.29h6.94v8.49h-11.97v12.21c0,3.6,1.92,4.84,4.77,4.84,2.6,0,4.96-1.18,6.57-2.6l1.24,9.05c-2.05,1.49-6.14,3.04-10.85,3.04-7.81,0-12.46-3.35-12.46-13.02v-13.52h-6.88v-8.49h2.42c5.27,0,6.39-3.41,6.08-9.3h10.11Z"/>
      <path class="cls-1" d="M167.58,33.17v19.53h-10.97v-18.23c0-5.21-2.05-7.56-6.01-7.56s-5.95,2.17-6.32,7.88v17.92h-10.91V18.6h10.91c0,4.34-1.55,9.11-3.22,12.71l1.74.5c1.18-6.82,4.09-14.13,12.21-14.13s12.59,6.08,12.59,15.5Z"/>
      <path class="cls-1" d="M202.99,29.95v7.75c0,8.43.25,11.1,1.12,15h-9.86c-.06-.62-.25-2.04-.25-3.1,0-3.22.74-6.45,1.74-9.3l-1.8-.25c-.19,8.12-2.29,13.58-11.59,13.58-6.76,0-11.22-3.72-11.22-9.24,0-7.01,4.46-9.79,14.26-11.59l7.75-1.36v-.81c0-2.91-1.55-4.59-4.96-4.59s-5.27,1.67-5.77,4.28l-9.73-1.24c1.67-7.13,6.57-11.41,15.62-11.41,9.67,0,14.69,4.15,14.69,12.28ZM181.84,42.53c0,1.61,1.24,2.73,3.78,2.73,4.4,0,6.82-2.11,7.44-6.82v-.62l-6.2,1.12c-3.53.68-5.02,1.61-5.02,3.6Z"/>
      <path class="cls-1" d="M220.04,18.6c0,4.34-1.55,9.18-3.22,12.77l1.74.43c.93-5.95,3.53-14.13,10.85-14.13,4.22,0,7.32,1.98,8.8,5.02,1.3,2.6.68,5.15-.93,8.68l1.74.43c.81-5.95,3.53-14.13,10.79-14.13s11.22,5.77,11.22,14.94v20.09h-10.97v-18.79c0-4.9-1.55-7.01-4.65-7.01-2.79,0-4.59,1.86-4.9,7.5v18.29h-10.97v-18.79c0-4.9-1.55-7.01-4.59-7.01-2.79,0-4.53,1.86-4.9,7.5v18.29h-10.91V18.6h10.91Z"/>
      <path class="cls-1" d="M263.68,9.3h9.05l-1.12,17.61h-6.82l-1.12-17.61Z"/>
      <path class="cls-1" d="M305.84,27.96l-10.04,1.05c-.68-2.29-2.05-3.29-5.52-3.29-3.04,0-4.53,1.05-4.53,2.23,0,2.05,2.91,2.73,8.49,3.78,6.45,1.24,12.59,2.73,12.59,10.79,0,6.01-5.08,11.1-15.38,11.1s-16.37-4.4-17.05-12.03l10.04-1.05c.62,3.53,2.42,4.96,6.63,4.96,3.41,0,5.27-1.12,5.27-3.16,0-2.85-2.91-3.35-8.43-4.4-6.2-1.18-12.59-2.61-12.59-10.04,0-5.58,4.77-10.23,14.75-10.23,10.91,0,14.14,4.84,15.75,10.29Z"/>
      <path class="cls-1" d="M6.51,92.61l-5.46,1.36v-9.36l6.32-1.43c4.22-.99,5.02-2.42,5.02-6.88h10.17v43.4h-10.17v-21.26c0-6.7,1.61-9.73,3.72-12.65l-1.61-.68c-1.55,3.35-3.35,6.32-8,7.5Z"/>
      <path class="cls-1" d="M39.49,114.06c0,3.97-2.42,6.26-6.26,6.26s-6.26-2.29-6.26-6.26,2.42-6.26,6.26-6.26,6.26,2.23,6.26,6.26Z"/>
      <path class="cls-1" d="M78.36,86.66c0,3.41-1.36,5.58-4.15,7.13-2.73,1.55-6.76,1.86-10.04,1.61v1.8c1.43-.19,2.98-.31,4.46-.31,6.51,0,10.97,3.47,10.97,10.42,0,8.37-6.82,13.33-18.54,13.33s-18.48-4.96-18.48-13.33c0-6.94,4.46-10.42,10.91-10.42,1.55,0,3.04.12,4.46.31v-1.8c-3.29.25-7.25-.06-9.98-1.61-2.85-1.55-4.15-3.72-4.15-7.13,0-7.07,6.39-11.28,17.24-11.28s17.3,4.21,17.3,11.28ZM69.31,106.99c0-3.6-2.91-5.58-8.25-5.58s-8.18,1.98-8.18,5.58,3.04,5.52,8.18,5.52,8.25-1.98,8.25-5.52ZM68.07,88.39c0-3.04-2.6-4.9-7.01-4.9s-6.94,1.86-6.94,4.9,2.54,4.9,6.94,4.9,7.01-1.8,7.01-4.9Z"/>
      <path class="cls-1" d="M82.15,98.56h23.12v8.18h-23.12v-8.18Z"/>
      <path class="cls-1" d="M125.92,76.3l6.39,19.71c1.8,5.95,1.98,7.94,1.55,13.64h1.74c-.5-5.7-.31-7.62,1.55-13.64l6.39-19.71h16.86v43.4h-11.22v-23.43c0-5.71.5-9.3,1.86-13.83l-1.74-.31c-.31,4.4-.93,8.18-2.42,12.83l-4.4,12.46c-1.74,5.52-2.23,7.94-2.23,12.28h-11.04c0-4.34-.5-6.7-2.23-12.28l-4.4-12.46c-1.49-4.65-2.11-8.43-2.42-12.83l-1.74.31c1.43,4.53,1.86,8.12,1.86,13.83v23.43h-11.22v-43.4h16.86Z"/>
      <path class="cls-1" d="M171.49,72.71c3.91,0,6.45,1.98,6.45,5.46s-2.54,5.46-6.45,5.46-6.45-1.98-6.45-5.46,2.48-5.46,6.45-5.46ZM176.94,119.7h-10.91v-34.1h10.91v34.1Z"/>
      <path class="cls-1" d="M193.31,73.2l-.31,29.94c-.06,5.58-.06,10.97.81,16.55h-10.66c-.93-5.21-.93-10.35-.87-15.69l.37-30.81h10.66Z"/>
      <path class="cls-1" d="M209.87,73.2l-.31,29.94c-.06,5.58-.06,10.97.81,16.55h-10.66c-.93-5.21-.93-10.35-.87-15.69l.37-30.81h10.66Z"/>
      <path class="cls-1" d="M220.84,72.71c3.91,0,6.45,1.98,6.45,5.46s-2.54,5.46-6.45,5.46-6.45-1.98-6.45-5.46,2.48-5.46,6.45-5.46ZM226.3,119.7h-10.91v-34.1h10.91v34.1Z"/>
      <path class="cls-1" d="M248.68,84.67c11.1,0,18.17,6.51,18.17,17.98s-7.07,17.98-18.17,17.98-18.23-6.51-18.23-17.98,7.13-17.98,18.23-17.98ZM248.68,112.07c4.34,0,7.25-3.41,7.25-9.42s-2.91-9.42-7.25-9.42-7.25,3.41-7.25,9.42,2.85,9.42,7.25,9.42Z"/>
      <path class="cls-1" d="M305.22,100.17v19.53h-10.97v-18.23c0-5.21-2.05-7.56-6.01-7.56s-5.95,2.17-6.32,7.88v17.92h-10.91v-34.1h10.91c0,4.34-1.55,9.11-3.22,12.71l1.74.5c1.18-6.82,4.09-14.13,12.21-14.13s12.59,6.08,12.59,15.5Z"/>
      <path class="cls-1" d="M308.32,98.56h23.12v8.18h-23.12v-8.18Z"/>
      <path class="cls-1" d="M345.83,86.1h-12.58v-9.79h36.39v9.79h-12.58v33.6h-11.22v-33.6Z"/>
      <path class="cls-1" d="M384.89,84.67c11.1,0,18.17,6.51,18.17,17.98s-7.07,17.98-18.17,17.98-18.23-6.51-18.23-17.98,7.13-17.98,18.23-17.98ZM384.89,112.07c4.34,0,7.25-3.41,7.25-9.42s-2.91-9.42-7.25-9.42-7.25,3.41-7.25,9.42,2.85,9.42,7.25,9.42Z"/>
      <path class="cls-1" d="M441.43,100.17v19.53h-10.97v-18.23c0-5.21-2.05-7.56-6.01-7.56s-5.95,2.17-6.32,7.88v17.92h-10.91v-34.1h10.91c0,4.34-1.55,9.11-3.22,12.71l1.74.5c1.18-6.82,4.09-14.13,12.21-14.13s12.58,6.08,12.58,15.5Z"/>
    </g>
  </g>
</svg>