<?xml version="1.0" encoding="UTF-8"?>
<svg id="Layer_2" data-name="Layer 2" xmlns="http://www.w3.org/2000/svg" viewBox="0 0 215.07 285.08">
  <defs>
    <style>
      .cls-1 {
        fill: #fff;
      }
    </style>
  </defs>
  <g id="Layer_1-2" data-name="Layer 1">
    <g>
      <path class="cls-1" d="M157.34,24.1c-2.04,5.35-6.17,9.33-11.6,11.09s-10.84,1.9-16.21,3.02c-9.49,1.98-17.81,7.28-24.56,14.12-4.78,4.84-8.88,10.42-12.19,16.37-1.57,2.82-3.01,5.73-4.34,8.67-1.17,2.58-2.21,5.23-2.8,8s-.68,5.6-.69,8.45c0,3.21-.58,6.13-2.16,8.96-1.2,2.17-2.76,4.1-4.5,5.85-1.41,1.42-2.95,2.52-4.57,3.67-1.49,1.06-2.79,2.4-3.94,3.81-3.33,4.08-5.49,9.1-5.36,14.42.05,1.96.03,3.62-1.28,5.23s-3.12,2.46-4.45,3.96c-1.61,1.82-2.95,3.9-3.88,6.15-1.11,2.67-1.32,5.26-1.16,8.11.14,2.5-.24,4.78-1.9,6.75s-3.85,3.43-5.75,5.14c-7.24,6.51-10.62,17.21-9.43,26.8.79,6.35,4.8,11.4,9.44,15.55,7.79,6.96,17.11,12.17,26.08,17.44s18.11,10.25,27.73,14.22c8.45,3.49,17.83,6.59,27.1,6,3.82-.24,7.64-1.18,10.93-3.19s6.03-5.09,8.42-8.11c3.02-3.81,5.76-8.01,7.3-12.66.67-2.01,1.11-4.2.92-6.32s-.69-4.1,0-6.16c.93-2.73,3.83-3.16,5.86-4.85s3.46-4.07,4.46-6.54c.94-2.33,1.76-4.83,1.99-7.34.15-1.62-.12-3.16.52-4.7.97-2.35,2.84-3.62,4.72-5.18s3.47-3.72,4.43-6.08,1.45-5.08,1.95-7.63.78-4.94.91-7.45c.08-1.65.12-3.28.54-4.88.62-2.39,1.88-4.38,3.61-6.12,1.97-1.98,4.18-3.7,6.16-5.67,2.21-2.2,4.22-4.61,6.02-7.16,5.08-7.17,8.38-15.59,10.68-24.03,2.38-8.75,2.7-17.69,1.37-26.63-.62-4.14-1.44-8.26-2.59-12.28-1.23-4.3-2.81-8.71-5.48-12.35-1.29-1.76-2.35-3.62-2.5-5.85-.2-2.9,1.16-5.62,2.89-7.85.98-1.25-.78-3.04-1.77-1.77-3.47,4.44-4.94,9.94-1.93,15.06.98,1.66,2.2,3.13,3.1,4.84,1.07,2.05,1.9,4.21,2.61,6.41,2.22,6.86,3.65,14.25,3.98,21.47.43,9.33-1.72,18.28-4.91,26.97-1.73,4.71-3.92,9.24-6.7,13.43-1.74,2.62-3.72,5.08-5.91,7.34-2,2.06-4.24,3.86-6.32,5.85-3.17,3.04-4.95,6.75-5.25,11.13-.35,4.96-.85,9.8-2.23,14.61-.68,2.37-1.87,4.53-3.69,6.23-1.7,1.59-3.67,2.73-4.98,4.72-1.06,1.61-1.67,3.41-1.68,5.33-.02,2.24-.35,4.2-1.03,6.35-.77,2.43-1.73,4.88-3.47,6.8-.95,1.06-2.06,1.9-3.34,2.52-1.05.51-2.05.95-2.84,1.83-1.73,1.92-2.21,4.62-2.01,7.13.15,1.84.51,3.53.21,5.39-.77,4.67-3.43,8.99-6.17,12.75-2.31,3.18-5.01,6.52-8.27,8.77-6.71,4.62-15.53,3.89-23.06,2.11-9.85-2.33-19.18-6.67-28.1-11.36-8.83-4.64-17.48-9.74-25.91-15.08-4.59-2.91-9.12-6.01-13.13-9.69-2.48-2.28-4.8-4.81-6.39-7.8-3.25-6.14-2.22-14.13.1-20.42.96-2.59,2.31-5.09,4.06-7.24s3.99-3.87,6.12-5.68c1.84-1.56,3.52-3.3,4.4-5.59s.58-4.69.54-7.13c-.07-4.94,2.93-9.87,6.82-12.78,1.63-1.22,2.97-2.61,3.67-4.57.64-1.82.3-3.76.38-5.64.19-4.9,2.84-9.54,6.2-12.98,1.38-1.41,3.03-2.32,4.55-3.55s3.04-2.75,4.33-4.31c1.8-2.17,3.32-4.55,4.31-7.19,1.05-2.79,1.12-5.65,1.12-8.59s.3-5.66,1.1-8.43,2.03-5.47,3.32-8.09c2.46-5.02,5.13-9.84,8.46-14.35,5.12-6.93,11.51-13.15,19.18-17.18,4.71-2.48,9.72-3.76,14.96-4.57,5.16-.8,10.51-1.25,15.27-3.6s8.16-6.59,10.03-11.5c.57-1.5-1.84-2.16-2.41-.66h0Z"/>
      <path class="cls-1" d="M75.47,140.76c19.61,11.83,39.81,22.68,60.52,32.48,5.61,2.66,11.27,5.24,16.95,7.75,1.46.64,2.73-1.51,1.26-2.16-20.94-9.23-41.42-19.51-61.33-30.79-5.42-3.07-10.8-6.22-16.14-9.44-1.38-.83-2.64,1.33-1.26,2.16h0Z"/>
      <path class="cls-1" d="M64.67,151.37c22.17,13.59,45.25,25.7,69.04,36.21,6.3,2.78,12.64,5.45,19.03,8.01,1.49.6,2.14-1.82.66-2.41-23.87-9.57-47.1-20.73-69.48-33.38-6.06-3.42-12.05-6.96-17.98-10.59-1.38-.84-2.63,1.32-1.26,2.16h0Z"/>
      <path class="cls-1" d="M62.62,165.02c20.53,14.6,43.04,26.36,66.76,34.88,6.16,2.21,12.41,4.2,18.71,5.97,1.55.44,2.21-1.98.66-2.41-24.34-6.84-47.69-17.02-69.24-30.25-5.33-3.27-10.54-6.72-15.63-10.35-1.31-.93-2.56,1.23-1.26,2.16h0Z"/>
      <path class="cls-1" d="M200.73,45.66c-10.87-5.76-21.74-11.51-32.61-17.27l-7.9-4.18c-1.24-.66-3.14-1.33-3.97-2.54-1.5-2.2.2-5.42,2.83-5.5,1.67-.05,2.94,1.47,4.18,2.41s2.65,1.92,4.02,2.8c4.01,2.57,8.22,4.34,12.6,6.12,5.94,2.42,11.4,5.81,17.13,8.65,1.73.86,3.47,1.69,5.21,2.5,1.03.48,2.13.83,2.84,1.77,2.13,2.83-1.24,6.73-4.35,5.23-1.44-.7-2.71,1.46-1.26,2.16,2.75,1.33,6.05.59,7.72-2.06s1.23-6-1.22-7.95c-.92-.73-2.05-1.12-3.1-1.61-1.75-.82-3.49-1.66-5.22-2.52-2.65-1.33-5.24-2.76-7.85-4.17-2.84-1.53-5.73-2.96-8.71-4.2-2.1-.87-4.25-1.61-6.31-2.58-2.67-1.27-5.22-2.79-7.66-4.45-1.7-1.16-3.25-2.53-4.92-3.71-1.24-.88-2.92-1.08-4.39-.73-2.68.63-4.68,3.31-4.62,6.05.04,2.17,1.27,4.04,3.14,5.09,1.62.91,3.29,1.74,4.94,2.61,7.31,3.87,14.63,7.75,21.94,11.62,5.33,2.82,10.62,5.75,16,8.47.09.05.18.09.27.14,1.42.75,2.69-1.4,1.26-2.16Z"/>
      <path class="cls-1" d="M160,15.58c.08-1.09.73-2.18,1.22-3.13.94-1.82,1.92-3.62,2.91-5.41.64-1.16,1.28-2.43,2.22-3.39.44-.44,1.07-.81,1.43-.93,1.14-.36,2.38-.19,3.69.18,2.09.58,4.07,1.52,6.02,2.46,7.04,3.41,13.92,7.17,20.9,10.72,2.99,1.52,6,3.01,8.87,4.72,1.63.97,3.45,2.05,4.59,3.61.42.58.67,1.24.75,1.79.07.49.04.38-.13.9s-.43,1.06-.68,1.58c-1.85,3.9-3.86,7.73-5.95,11.5-.78,1.41,1.38,2.67,2.16,1.26,2.04-3.69,4-7.43,5.83-11.24.9-1.88,1.7-3.57.92-5.64-.72-1.91-2.32-3.27-3.93-4.43-2.54-1.82-5.37-3.24-8.14-4.66-7.71-3.97-15.37-8.06-23.15-11.88-3.46-1.7-7.98-4.32-12-3.38-2.43.56-3.86,2.61-5.04,4.65s-2.4,4.3-3.51,6.49c-.68,1.34-1.37,2.72-1.48,4.24-.11,1.61,2.39,1.6,2.5,0h0Z"/>
      <g>
        <path class="cls-1" d="M125.5,77.54c3.09-3.07,7.95-4.23,11.96-2.26s6.2,6.63,5.44,11.06c-.27,1.57,2.14,2.25,2.41.66.94-5.49-1.45-11.35-6.59-13.89s-11.06-1.25-14.99,2.65c-1.14,1.14.62,2.9,1.77,1.77h0Z"/>
        <path class="cls-1" d="M161,94.55c3.09-3.07,7.95-4.23,11.96-2.26s6.2,6.63,5.44,11.06c-.27,1.57,2.14,2.25,2.41.66.94-5.49-1.45-11.35-6.59-13.89s-11.06-1.25-14.99,2.65c-1.14,1.14.62,2.9,1.77,1.77h0Z"/>
      </g>
      <path class="cls-1" d="M125.91,99.6c.16-.08.15-.07.43.02.33.1.78.37,1.18.63,1.33.87,2.56,1.9,3.83,2.85,4.45,3.31,9.24,6.11,14.35,8.27,3.84,1.63,7.81,2.79,11.85,3.83,1.12.29,2.41.56,3.41,1.01.08.03.31.15.44.23.26.15.25.16.29.2.24.22-.02-.03.14.17-.09-.11.02.25.03.07-.02.24-.04.49-.18.8-.21.48-.53.91-.86,1.31-.93,1.13-2.09,2.09-3.29,2.92-3.17,2.21-6.79,3.79-10.57,4.61-4.05.88-8.48.79-12.24-1.11-3.43-1.73-5.95-4.7-7.65-8.09s-2.67-7.39-2.74-11.24c-.03-1.44.05-2.91.41-4.31.14-.55.29-.98.54-1.45.22-.4.39-.58.62-.71,1.39-.82.13-2.98-1.26-2.16-2.21,1.3-2.63,4.51-2.78,6.82-.24,3.75.43,7.64,1.7,11.17,1.42,3.94,3.67,7.65,6.99,10.27,3.68,2.91,8.32,4.11,12.97,3.81s8.99-1.76,12.94-3.98c2.73-1.54,5.95-3.68,7.38-6.59,1.15-2.35.1-4.21-2.2-5.12-3.33-1.33-6.98-1.85-10.38-2.99-6.46-2.15-12.52-5.39-18.01-9.4-1.63-1.19-3.17-2.58-4.92-3.6-1.17-.69-2.43-1.03-3.7-.38-1.43.73-.17,2.89,1.26,2.16Z"/>
      <path class="cls-1" d="M52.19,210.82c-13.9,4.85-27.8,9.7-41.7,14.56l1.54.87c-2.28-6.84-4.47-13.72-6.36-20.68-1.12-4.15-2.18-8.34-2.81-12.6-.17-1.18-.3-2.4-.33-3.61-.01-.47,0-.95.03-1.42,0-.13.06-.58.04-.45-.02.16.05-.3.08-.41.05-.19.25-.8.19-.67-.09.21.31-.74.12-.23.02-.05.15-.18.19-.19-.31.09-.14.02,0,.02-.09,0,.48.02.71.08.6.16,1.17.51,1.7.83,3.67,2.25,7.15,5.33,10.06,8.49,2.3,2.5,4.27,5.26,5.94,8.21.25.45.9.76,1.41.57,5.24-1.88,10.48-3.75,15.72-5.63,1.5-.54.86-2.95-.66-2.41-5.24,1.88-10.48,3.75-15.72,5.63l1.41.57c-3.68-6.54-8.89-11.71-14.86-16.2-2.13-1.6-6.45-4.45-8.2-.94-.85,1.71-.71,3.89-.55,5.74.36,4.04,1.28,8.03,2.27,11.95,2.04,8.1,4.59,16.08,7.23,24,.2.61.87,1.11,1.54.87,13.9-4.85,27.8-9.7,41.7-14.56,1.51-.53.86-2.94-.66-2.41h0Z"/>
      <path class="cls-1" d="M109.96,243.02c3.59,13.71,7.17,27.43,10.76,41.14.17.65.89,1.05,1.54.87,7.34-2.07,14.66-4.24,21.85-6.77,4.13-1.45,8.27-2.99,12.17-4.99,1.84-.95,3.88-2.04,5.17-3.71,1.73-2.23.33-4.43-2.02-5.62-1.82-.93-3.81-1.52-5.76-2.11-2.47-.74-4.94-1.43-7.49-1.85-3.77-.61-7.58-.77-11.39-.45l1.21.92c-1.34-5.09-2.67-10.19-4.01-15.28-.41-1.55-2.82-.9-2.41.66,1.34,5.09,2.67,10.19,4.01,15.28.13.49.67.96,1.21.92,7.12-.6,13.94.7,20.67,2.99,1.29.44,2.89.89,3.92,1.84.13.11.52.58.4.43.04.05,0,.21,0,.27-.04-.34-.14.24-.01,0-.05.1-.11.2-.16.3-.11.19-.25.33-.09.14-.21.25-.44.49-.69.71-.45.4-.33.3-.78.61-.94.66-1.95,1.23-2.97,1.76-3.5,1.81-7.22,3.21-10.93,4.53-7.42,2.64-14.98,4.88-22.56,7.02l1.54.87c-3.59-13.71-7.17-27.43-10.76-41.14-.41-1.56-2.82-.9-2.41.66h0Z"/>
    </g>
  </g>
</svg>