<?xml version="1.0" encoding="UTF-8"?>
<svg id="Layer_2" data-name="Layer 2" xmlns="http://www.w3.org/2000/svg" viewBox="0 0 266.04 266.04">
  <defs>
    <style>
      .cls-1 {
        fill: none;
        stroke: #ff009e;
        stroke-miterlimit: 10;
        stroke-width: 2px;
      }

      .cls-2 {
        fill: #a7f417;
      }
    </style>
  </defs>
  <g id="Layer_1-2" data-name="Layer 1">
    <g>
      <rect class="cls-2" x="0" y="0" width="266.04" height="266.04" rx="27.73" ry="27.73"/>
      <path class="cls-1" d="M156.77,75.15c.04-.4.06-.8.08-1.21.01-.15.02-.3.02-.46,0-.15,0-.3-.02-.45-.34-9.35-6.17-17.54-15.03-20.73-8.58-3.1-18.71-.29-24.52,6.71-3.78,4.55-5.59,10.4-5.21,16.14h-46.92v140.41h140.41V75.15h-48.81ZM121.38,65.74c3.18-5.35,9.55-8.33,15.7-7.2,7.25,1.34,12.37,7.63,12.5,14.94,0,.56-.06,1.12-.13,1.67h-30.08c-.35-3.22.31-6.55,2.01-9.41Z"/>
    </g>
  </g>
</svg>